<svg width="167" height="36" viewBox="0 0 167 36" fill="none" xmlns="http://www.w3.org/2000/svg">
<circle cx="22.1429" cy="17.9285" r="9.14286" stroke="#7F56D9" stroke-width="6"/>
<circle opacity="0.2" cx="31.8571" cy="17.9285" r="9.14286" stroke="white" stroke-width="6"/>
<path d="M55.1009 24.9285V10.383H65.2429V13.2381H58.6165V16.2211H64.7244V19.0833H58.6165V22.0734H65.2429V24.9285H55.1009ZM71.829 25.0847C71.0241 25.0847 70.2925 24.8764 69.6344 24.4597C68.9762 24.0431 68.4507 23.4181 68.0577 22.5847C67.6647 21.7514 67.4682 20.7168 67.4682 19.481C67.4682 18.1979 67.6718 17.142 68.079 16.3134C68.4862 15.4848 69.0188 14.8716 69.677 14.4739C70.3399 14.0762 71.0525 13.8773 71.8148 13.8773C72.3877 13.8773 72.8777 13.9768 73.2849 14.1756C73.6921 14.3698 74.0283 14.6207 74.2935 14.9285C74.5586 15.2362 74.7598 15.5558 74.8972 15.8873H74.9682V10.383H78.4412V24.9285H75.0037V23.16H74.8972C74.7504 23.4962 74.542 23.811 74.2722 24.1046C74.0023 24.3982 73.6637 24.6349 73.2565 24.8148C72.8541 24.9948 72.3782 25.0847 71.829 25.0847ZM73.0364 22.3788C73.4578 22.3788 73.8176 22.2604 74.1159 22.0236C74.4142 21.7822 74.6438 21.4436 74.8048 21.008C74.9658 20.5724 75.0463 20.061 75.0463 19.4739C75.0463 18.8773 74.9658 18.3636 74.8048 17.9327C74.6486 17.5019 74.4189 17.1704 74.1159 16.9384C73.8176 16.7064 73.4578 16.5904 73.0364 16.5904C72.6055 16.5904 72.2409 16.7088 71.9426 16.9455C71.6443 17.1823 71.417 17.5161 71.2608 17.9469C71.1093 18.3778 71.0335 18.8868 71.0335 19.4739C71.0335 20.061 71.1116 20.5724 71.2679 21.008C71.4241 21.4436 71.6491 21.7822 71.9426 22.0236C72.2409 22.2604 72.6055 22.3788 73.0364 22.3788ZM88.0191 17.7055V20.383H81.2861V17.7055H88.0191ZM104.074 15.6529H100.523C100.476 15.2883 100.379 14.9592 100.232 14.6657C100.085 14.3721 99.8911 14.1212 99.6496 13.9128C99.4081 13.7045 99.1216 13.5459 98.7902 13.437C98.4635 13.3234 98.1013 13.2665 97.7036 13.2665C96.9981 13.2665 96.3896 13.4394 95.8783 13.785C95.3716 14.1306 94.981 14.6302 94.7064 15.2836C94.4365 15.937 94.3016 16.7277 94.3016 17.6557C94.3016 18.6216 94.4389 19.4313 94.7135 20.0847C94.9929 20.7334 95.3835 21.2234 95.8854 21.5549C96.392 21.8816 96.991 22.0449 97.6822 22.0449C98.0705 22.0449 98.4232 21.9952 98.7405 21.8958C99.0625 21.7964 99.3442 21.652 99.5857 21.4626C99.8319 21.2684 100.033 21.0341 100.189 20.7594C100.35 20.4801 100.462 20.1652 100.523 19.8148L104.074 19.8361C104.013 20.4801 103.826 21.1145 103.513 21.7395C103.205 22.3645 102.782 22.9351 102.242 23.4512C101.702 23.9626 101.044 24.3698 100.267 24.6728C99.4957 24.9758 98.6103 25.1273 97.6112 25.1273C96.2949 25.1273 95.116 24.8385 94.0743 24.2609C93.0374 23.6785 92.2182 22.8309 91.6169 21.7182C91.0156 20.6055 90.7149 19.2514 90.7149 17.6557C90.7149 16.0554 91.0203 14.6988 91.6311 13.5861C92.2419 12.4734 93.0681 11.6283 94.1098 11.0506C95.1515 10.473 96.3186 10.1841 97.6112 10.1841C98.4919 10.1841 99.3063 10.3073 100.054 10.5535C100.803 10.7949 101.461 11.1501 102.029 11.6188C102.597 12.0828 103.059 12.6534 103.414 13.3305C103.769 14.0075 103.989 14.7817 104.074 15.6529ZM106.486 24.9285V14.0194H109.959V24.9285H106.486ZM108.226 12.7481C107.738 12.7481 107.319 12.5871 106.969 12.2651C106.619 11.9384 106.443 11.5454 106.443 11.0861C106.443 10.6316 106.619 10.2433 106.969 9.92136C107.319 9.59466 107.738 9.43131 108.226 9.43131C108.718 9.43131 109.138 9.59466 109.483 9.92136C109.834 10.2433 110.009 10.6316 110.009 11.0861C110.009 11.5454 109.834 11.9384 109.483 12.2651C109.138 12.5871 108.718 12.7481 108.226 12.7481ZM112.57 24.9285V14.0194H115.943V16.008H116.057C116.256 15.2883 116.58 14.7533 117.03 14.4029C117.48 14.0478 118.003 13.8702 118.599 13.8702C118.76 13.8702 118.926 13.8821 119.097 13.9057C119.267 13.9247 119.426 13.9555 119.572 13.9981V17.0165C119.407 16.9597 119.189 16.9147 118.919 16.8816C118.654 16.8484 118.417 16.8319 118.209 16.8319C117.797 16.8319 117.425 16.9242 117.094 17.1089C116.767 17.2888 116.509 17.5421 116.32 17.8688C116.135 18.1908 116.043 18.5696 116.043 19.0052V24.9285H112.57ZM125.913 25.1344C124.763 25.1344 123.776 24.8977 122.952 24.4242C122.133 23.9507 121.503 23.2926 121.063 22.4498C120.622 21.6022 120.402 20.6221 120.402 19.5094C120.402 18.392 120.622 17.4119 121.063 16.5691C121.508 15.7216 122.14 15.061 122.959 14.5876C123.783 14.1141 124.765 13.8773 125.906 13.8773C126.915 13.8773 127.793 14.0596 128.541 14.4242C129.294 14.7888 129.881 15.3049 130.303 15.9725C130.729 16.6354 130.954 17.4143 130.977 18.3091H127.732C127.665 17.7504 127.476 17.3125 127.163 16.9952C126.856 16.678 126.453 16.5194 125.956 16.5194C125.554 16.5194 125.201 16.633 124.898 16.8603C124.595 17.0828 124.358 17.4143 124.188 17.8546C124.022 18.2902 123.939 18.83 123.939 19.4739C123.939 20.1179 124.022 20.6624 124.188 21.1074C124.358 21.5478 124.595 21.8816 124.898 22.1089C125.201 22.3314 125.554 22.4427 125.956 22.4427C126.278 22.4427 126.562 22.374 126.808 22.2367C127.059 22.0994 127.265 21.8982 127.426 21.633C127.587 21.3631 127.689 21.0364 127.732 20.6529H130.977C130.944 21.5525 130.719 22.3385 130.303 23.0109C129.891 23.6832 129.311 24.2064 128.563 24.5805C127.819 24.9498 126.936 25.1344 125.913 25.1344ZM136.628 10.383V24.9285H133.155V10.383H136.628ZM144.338 25.1344C143.197 25.1344 142.212 24.9095 141.383 24.4597C140.559 24.0052 139.925 23.3589 139.48 22.5208C139.039 21.678 138.819 20.6766 138.819 19.5165C138.819 18.3896 139.042 17.4048 139.487 16.562C139.932 15.7145 140.559 15.0563 141.369 14.5876C142.179 14.1141 143.133 13.8773 144.231 13.8773C145.008 13.8773 145.718 13.9981 146.362 14.2395C147.006 14.481 147.562 14.8385 148.031 15.312C148.5 15.7855 148.864 16.3702 149.125 17.0663C149.385 17.7575 149.515 18.5506 149.515 19.4455V20.312H140.034V18.2949H146.284C146.279 17.9256 146.191 17.5966 146.021 17.3077C145.851 17.0189 145.616 16.794 145.318 16.633C145.024 16.4673 144.686 16.3844 144.302 16.3844C143.914 16.3844 143.566 16.472 143.258 16.6472C142.95 16.8177 142.707 17.052 142.527 17.3503C142.347 17.6439 142.252 17.9777 142.243 18.3518V20.4043C142.243 20.8494 142.33 21.24 142.505 21.5762C142.681 21.9076 142.929 22.1657 143.251 22.3503C143.573 22.535 143.957 22.6273 144.402 22.6273C144.709 22.6273 144.989 22.5847 145.24 22.4995C145.491 22.4143 145.706 22.2888 145.886 22.1231C146.066 21.9573 146.201 21.7538 146.291 21.5123L149.48 21.6046C149.347 22.3196 149.056 22.9422 148.606 23.4725C148.161 23.9981 147.576 24.4076 146.852 24.7012C146.128 24.99 145.289 25.1344 144.338 25.1344ZM153.642 25.1344C153.131 25.1344 152.693 24.9545 152.328 24.5947C151.968 24.2348 151.791 23.7992 151.796 23.2878C151.791 22.7859 151.968 22.3574 152.328 22.0023C152.693 21.6425 153.131 21.4626 153.642 21.4626C154.125 21.4626 154.551 21.6425 154.921 22.0023C155.295 22.3574 155.484 22.7859 155.489 23.2878C155.484 23.6288 155.394 23.9389 155.219 24.2182C155.049 24.4976 154.824 24.7201 154.544 24.8859C154.27 25.0516 153.969 25.1344 153.642 25.1344Z" fill="white"/>
</svg>
